<svg xmlns="http://www.w3.org/2000/svg" viewBox="0 0 247.95 130.77"><defs><style>.cls-1{fill:#3d3d3d;}.cls-2{fill:#ffc107;}</style></defs><g id="Layer_2" data-name="Layer 2"><g id="Layer_1-2" data-name="Layer 1"><path class="cls-1" d="M236.07,62.68l-.51,3.55c-.31,2.15-.64,4.29-.91,6.45-.11.89.14,1,1,.81,1.38-.29,2.77-.51,4.16-.75.5-.08.64.07.38.56-.95,1.8-1.88,3.61-2.82,5.42-.09.16-.21.3-.15.5.32,0,.46-.23.64-.4q4.84-4.74,9.68-9.48c.15-.14.48-.26.33-.54s-.38,0-.57,0l-6,1c-1.05.18-2.1.32-3.15.5-.44.07-.63-.08-.53-.51.47-2.15.63-4.34,1-6.5.27-1.52.42-3.07.64-4.6.1-.78.24-1.55.35-2.33,0-.22.18-.51-.06-.64s-.46.14-.63.31c-1.88,1.79-3.72,3.62-5.63,5.38-1.41,1.31-2.83,2.6-4.18,4-.34.35-.51.34-.73-.12q-1.91-4-3.85-8c-.14-.28-.19-.81-.58-.73s-.55,2.74-.67,3.68c-.07.57-1.09,6.78-1.19,7.35-.19,1-.32,2-.47,3.08,0,.14-.19.34,0,.43s.3-.14.38-.3c.27-.54,2.39-7.43,2.73-7.4s2.57,5.71,2.77,6.15.43.56.82.18c1.64-1.58,3.36-3.07,4.93-4.71A18.37,18.37,0,0,1,236.07,62.68Z"/><path class="cls-1" d="M148.77,0A104.06,104.06,0,0,0,137,21.3c-.17-1.35-.17-1.34-1.49-1.46-1.08-.1-2.16-.2-3.25-.32-.4-.05-.71,0-.74.48-.09,1.41-.31,2.81-.29,4.23,0,.49.15.87.67.87,1.37,0,2.71.38,4.09.33.42,0,.84-.13.76-.59-.32-1.85.86-3.09,1.76-4.43a99.49,99.49,0,0,0,7.77-13.94c.81-1.79,1.58-3.6,2.36-5.41a10,10,0,0,0,.3-1Z"/><path class="cls-1" d="M193.88,55.7a4.42,4.42,0,0,0-4.44-4.39,4.4,4.4,0,1,0,0,8.79A4.41,4.41,0,0,0,193.88,55.7Z"/><path class="cls-1" d="M131.44,29.15a4.42,4.42,0,0,0-4.36,4.4A4.55,4.55,0,0,0,131.49,38a4.46,4.46,0,0,0,4.4-4.45A4.38,4.38,0,0,0,131.44,29.15Z"/><path class="cls-1" d="M159.48,40.27a4.34,4.34,0,0,0-4.43,4.35A4.44,4.44,0,0,0,159.43,49a4.39,4.39,0,0,0,4.47-4.36A4.29,4.29,0,0,0,159.48,40.27Z"/><path class="cls-1" d="M163.64,37.92a1.07,1.07,0,0,0,.8-.47,22.68,22.68,0,0,0,5.64-9.59c0-.15.17-.32,0-.42s-.29.08-.4.19a22.29,22.29,0,0,0-5.11,7.61A18.72,18.72,0,0,0,163.64,37.92Z"/><path class="cls-1" d="M190.76,54.49a.68.68,0,0,0,.51-.31A14.56,14.56,0,0,0,194.9,48c0-.1.11-.21,0-.27s-.19,0-.26.12a14.45,14.45,0,0,0-3.29,4.89A12.1,12.1,0,0,0,190.76,54.49Z"/><path class="cls-2" d="M50.4,92.28a17.42,17.42,0,1,0,17.42,17.41A17.42,17.42,0,0,0,50.4,92.28Zm0,28.37a11,11,0,1,1,11-11A11,11,0,0,1,50.4,120.65Z"/><path class="cls-2" d="M103.42,71H71.14V63a13.6,13.6,0,0,1,13.6-13.6l9.13.13-3.14-7a36.66,36.66,0,0,0-8.83,1.09c-11,3.39-7.82.65-17.74,6.26S39.25,64.5,34.55,65.41s-24.78.78-24.78.78-4.3-.39-5.22,2.09A19.71,19.71,0,0,0,3.64,74S4,86.67,2.73,88,.51,87.58.25,91.24-.61,100.37,2,103.11s18.37,6,22.67,6.39,3.78,1.43,4.7-1.31c.12-.36.32-1,.6-1.71a20.71,20.71,0,1,1,40.93,6.38C71.6,114.17,72,115,72,115h51.09Z"/><path class="cls-2" d="M226.68,94.5l2.87-8.22L221.34,83l-.13-6.91-4.57.39L209.47,68l-15.39,3.52s-7.05-1.69-8.61-3c-1.36-1.13-25-15.39-37.51-20.19a4.67,4.67,0,0,1-1.13.15A4.33,4.33,0,0,1,143.57,47c-.16,0-.34-.08-.49-.1-5.79-.94-22.71-3.15-37.69-4l31,72.12H179l1.26-.12a20.47,20.47,0,0,1-.68-5.17,20.74,20.74,0,0,1,18-20.54,7.64,7.64,0,0,0,.49,3.26,17.4,17.4,0,1,0,18.63,12,11.3,11.3,0,0,0,3.75.42,20.72,20.72,0,0,1,.6,4.89c0,.53,0,1-.08,1.57l.8-.07,11.61.26V98.93ZM167.6,71h-50L114,50.13l-.12-.7c2.53.09,6.12.26,10.43.59,6.4.49,11.61,1.13,13.06,1.34,11.17,1.59,24,9.39,30.25,13.53Zm32.48,49.7a11,11,0,1,1,10.95-11A11,11,0,0,1,200.08,120.65Z"/><path class="cls-2" d="M97.47,22.15c3.17-1,6.36-1.91,9.52-2.95a3.51,3.51,0,0,1,2.55,0c.63.25.71.53.41,1.13a4.22,4.22,0,0,1-2.88,2c-2.21.69-4.4,1.46-6.59,2.19s-4.11,1.37-6.15,2.07c-1.67.56-3.32,1.16-5,1.72-.47.16-.59.42-.39.87.89,2,1.77,4,2.65,6l5.09-1.68c-.26-.51-.48-1.05-.75-1.56s-.09-.53.28-.66l12.14-4.59a10.11,10.11,0,0,1,1.26-.47c2.38-.54,3.39-2.44,4.38-4.37a5.23,5.23,0,0,0,.58-2.35,3.92,3.92,0,0,0-1.32-2.91,7.17,7.17,0,0,0-4.1-1.66,8.92,8.92,0,0,0-4.46,1c-2.81,1.11-5.63,2.2-8.43,3.32-2.12.84-4.21,1.72-6.32,2.56-2.41,1-4.84,1.88-7.23,2.87L77.25,27c-2.27.95-4.56,1.86-6.85,2.77-.87.35-1.72.74-2.58,1.11A19.92,19.92,0,0,0,71.57,30c1.67-.46,3.34-.95,5-1.44,2.38-.71,4.76-1.44,7.14-2.16,1.92-.58,3.86-1.14,5.78-1.73C92.15,23.81,94.81,23,97.47,22.15Z"/><path class="cls-1" d="M144.37,129.65c-2.78-1.49-5.58-2.94-8.37-4.4a1.4,1.4,0,0,1-.72-.77c-1-2.52-2-5-2.92-7.54a22.56,22.56,0,0,1-1.22-3.34,9.89,9.89,0,0,0-.62-1.36c-1.67-4.06-3.31-8.12-5-12.18-1.86-4.57-3.7-9.14-5.64-13.67-1.63-3.8-3.19-7.63-4.81-11.43-1.72-4-3.48-8-5.22-12-1.2-2.75-2.37-5.51-3.6-8.24-1.39-3.09-2.71-6.2-4.17-9.26C101,43.07,100,40.66,98.9,38.28c-.48-1.08-1-2.14-1.48-3.22a1.56,1.56,0,0,0-.18-.34l-5.13,1.69c.72,1.67,1.44,3.35,2.17,5,1.35,3.06,2.72,6.11,4.08,9.16,1,2.13,1.9,4.26,2.87,6.39q2.4,5.3,4.83,10.59T110.9,78c1.38,2.92,2.77,5.85,4.16,8.76,2,4.2,4,8.4,6,12.58,1.83,3.78,3.71,7.54,5.57,11.31,1.49,3,3,6,4.47,9,1,2,2,4,3,6a1.4,1.4,0,0,0,.82.67c2.79,1.14,5.57,2.32,8.38,3.43a13.11,13.11,0,0,0,2.86,1A6.49,6.49,0,0,0,144.37,129.65Z"/></g></g></svg>